<svg data-v-fde0c5aa="" xmlns="http://www.w3.org/2000/svg" viewBox="0 0 300 300" class="font"><!----><defs data-v-fde0c5aa=""><!----></defs><rect data-v-fde0c5aa="" fill="transparent" x="0" y="0" width="300px" height="300px" class="logo-background-square"></rect><defs data-v-fde0c5aa=""><linearGradient data-v-fde0c5aa="" gradientTransform="rotate(25)" id="c5e7f434-bb30-4498-adb6-e60c4db90c6f" x1="0%" y1="0%" x2="100%" y2="0%"><stop data-v-fde0c5aa="" offset="0%" stop-color="#006678" stop-opacity="1"></stop><stop data-v-fde0c5aa="" offset="100%" stop-color="#4FA8FF" stop-opacity="1"></stop></linearGradient></defs><g data-v-fde0c5aa="" id="234190cc-36ec-4845-b29b-896a77da3e37" fill="url(#c5e7f434-bb30-4498-adb6-e60c4db90c6f)" transform="matrix(2.2195319898865873,0,0,2.2195319898865873,39.66707018828757,127.21650389097603)"><path d="M0.15 5.36L3.35 5.36L3.35 14.08L4.47 14.08L4.47 5.36L7.67 5.36L7.67 4.28L0.15 4.28ZM9.21 14.08L10.30 14.08L10.30 10.46C10.30 8.88 11.23 7.77 12.80 7.76C14.10 7.76 14.88 8.53 14.88 9.83L14.88 14.08L15.97 14.08L15.97 9.53C15.97 7.76 14.94 6.66 13.17 6.66C11.82 6.68 10.81 7.21 10.30 8.36L10.30 3.70L9.21 3.70ZM18.23 4.59C18.23 5.03 18.54 5.35 18.94 5.35C19.35 5.35 19.66 5.03 19.66 4.59C19.66 4.16 19.35 3.84 18.94 3.84C18.54 3.84 18.23 4.16 18.23 4.59ZM18.41 14.08L19.49 14.08L19.49 6.71L18.41 6.71ZM22.15 14.08L23.24 14.08L23.24 10.12C23.37 8.72 24.26 7.77 25.72 7.76C27.02 7.76 27.80 8.53 27.80 9.83L27.80 14.08L28.90 14.08L28.90 9.53C28.90 7.76 27.86 6.66 26.10 6.66C24.75 6.68 23.76 7.21 23.24 8.33L23.24 6.71L22.15 6.71ZM30.59 10.19C30.59 12.29 31.96 13.76 33.95 13.76C35.20 13.76 36.15 13.20 36.67 12.22L36.67 13.34C36.67 14.88 35.62 15.86 34.01 15.86C33.03 15.85 32.26 15.53 31.53 14.92L31.02 15.76C31.92 16.44 32.89 16.81 34.05 16.83C36.29 16.83 37.76 15.47 37.76 13.31L37.76 6.71L36.67 6.71L36.67 8.20C36.13 7.22 35.18 6.66 33.92 6.66C31.95 6.68 30.59 8.13 30.59 10.19ZM31.61 10.23C31.63 8.71 32.66 7.62 34.15 7.62C35.62 7.62 36.67 8.69 36.67 10.23C36.67 11.75 35.62 12.84 34.15 12.84C32.66 12.84 31.63 11.75 31.61 10.23ZM39.26 13.09C39.96 13.76 41.03 14.13 42.08 14.13C43.50 14.13 44.79 13.48 44.79 12.03C44.79 9.38 40.67 10.22 40.67 8.58C40.67 7.90 41.30 7.60 42.13 7.60C42.81 7.60 43.55 7.84 44.13 8.20L44.55 7.34C43.93 6.92 43.08 6.66 42.20 6.66C40.85 6.66 39.63 7.25 39.63 8.67C39.62 11.28 43.75 10.37 43.71 12.15C43.69 12.88 42.99 13.20 42.13 13.20C41.26 13.20 40.31 12.85 39.68 12.26ZM45.33 4.28L48.61 14.08L49.76 14.08L52.43 5.82L55.08 14.08L56.22 14.08L59.51 4.28L58.35 4.28L55.69 12.78L53.00 4.28L51.88 4.30L49.22 12.78L46.54 4.28ZM60.07 10.40C60.07 12.60 61.57 14.13 63.74 14.13C64.97 14.13 66.01 13.68 66.71 12.89L66.11 12.25C65.53 12.85 64.74 13.17 63.83 13.17C62.40 13.17 61.35 12.26 61.15 10.82L67.17 10.82C67.28 8.32 66.11 6.66 63.73 6.68C61.59 6.68 60.07 8.20 60.07 10.40ZM61.15 9.93C61.32 8.53 62.33 7.62 63.73 7.62C65.17 7.62 66.12 8.51 66.19 9.93ZM68.28 9.18C68.28 11.94 70.55 14.14 73.42 14.14C76.27 14.14 78.54 11.94 78.54 9.18C78.54 6.43 76.27 4.26 73.42 4.26C70.55 4.26 68.28 6.41 68.28 9.18ZM69.41 9.18C69.41 7.03 71.23 5.32 73.42 5.32C75.60 5.32 77.39 7.03 77.39 9.18C77.39 11.34 75.60 13.06 73.42 13.06C71.23 13.06 69.41 11.34 69.41 9.18ZM79.16 6.71L81.91 14.08L83.05 14.08L85.20 8.09L87.37 14.08L88.51 14.08L91.24 6.71L90.10 6.71L87.95 12.95L85.78 6.71L84.63 6.71L82.49 12.95L80.30 6.71ZM92.53 14.08L93.62 14.08L93.62 10.12C93.74 8.72 94.64 7.77 96.10 7.76C97.40 7.76 98.18 8.53 98.18 9.83L98.18 14.08L99.27 14.08L99.27 9.53C99.27 7.76 98.24 6.66 96.47 6.66C95.13 6.68 94.14 7.21 93.62 8.33L93.62 6.71L92.53 6.71Z"></path></g><!----><!----></svg>